<?xml version="1.0" encoding="UTF-8" standalone="no"?><!-- Generator: Gravit.io --><svg xmlns="http://www.w3.org/2000/svg" xmlns:xlink="http://www.w3.org/1999/xlink" style="isolation:isolate" viewBox="0 0 800 800" width="800pt" height="800pt"><defs><clipPath id="_clipPath_iF7ZJI3JkfwNmhS0DzvfqnVKUvqK1c5T"><rect width="800" height="800"/></clipPath></defs><g clip-path="url(#_clipPath_iF7ZJI3JkfwNmhS0DzvfqnVKUvqK1c5T)"><g><path d=" M 0 0 L 100 0 L 100 100 L 0 100 L 0 0 L 0 0 L 0 0 L 0 0 L 0 0 L 0 0 L 0 0 L 0 0 L 0 0 L 0 0 L 0 0 L 0 0 L 0 0 L 0 0 L 0 0 L 0 0 L 0 0 L 0 0 L 0 0 L 0 0 L 0 0 L 0 0 L 0 0 L 0 0 L 0 0 L 0 0 L 0 0 L 0 0 L 0 0 L 0 0 L 0 0 Z  M 200 0 L 300 0 L 300 100 L 200 100 L 200 0 L 200 0 L 200 0 L 200 0 L 200 0 L 200 0 L 200 0 L 200 0 L 200 0 L 200 0 L 200 0 L 200 0 L 200 0 L 200 0 L 200 0 L 200 0 L 200 0 L 200 0 L 200 0 L 200 0 L 200 0 L 200 0 L 200 0 L 200 0 L 200 0 L 200 0 L 200 0 L 200 0 L 200 0 L 200 0 L 200 0 Z  M 400 0 L 500 0 L 500 100 L 400 100 L 400 0 L 400 0 L 400 0 L 400 0 L 400 0 L 400 0 L 400 0 L 400 0 L 400 0 L 400 0 L 400 0 L 400 0 L 400 0 L 400 0 L 400 0 L 400 0 L 400 0 L 400 0 L 400 0 L 400 0 L 400 0 L 400 0 L 400 0 L 400 0 L 400 0 L 400 0 L 400 0 L 400 0 L 400 0 L 400 0 Z  M 600 0 L 700 0 L 700 100 L 600 100 L 600 0 L 600 0 L 600 0 L 600 0 L 600 0 L 600 0 L 600 0 L 600 0 L 600 0 L 600 0 L 600 0 L 600 0 L 600 0 L 600 0 L 600 0 L 600 0 L 600 0 L 600 0 L 600 0 L 600 0 L 600 0 L 600 0 L 600 0 L 600 0 L 600 0 L 600 0 L 600 0 L 600 0 L 600 0 Z  M 100 100 L 200 100 L 200 200 L 100 200 L 100 100 L 100 100 L 100 100 L 100 100 L 100 100 L 100 100 L 100 100 L 100 100 L 100 100 L 100 100 L 100 100 L 100 100 L 100 100 L 100 100 L 100 100 L 100 100 L 100 100 L 100 100 L 100 100 L 100 100 L 100 100 L 100 100 L 100 100 L 100 100 L 100 100 L 100 100 L 100 100 L 100 100 Z  M 300 100 L 400 100 L 400 200 L 300 200 L 300 100 L 300 100 L 300 100 L 300 100 L 300 100 L 300 100 L 300 100 L 300 100 L 300 100 L 300 100 L 300 100 L 300 100 L 300 100 L 300 100 L 300 100 L 300 100 L 300 100 L 300 100 L 300 100 L 300 100 L 300 100 L 300 100 L 300 100 L 300 100 L 300 100 L 300 100 L 300 100 Z  M 500 100 L 600 100 L 600 200 L 500 200 L 500 100 L 500 100 L 500 100 L 500 100 L 500 100 L 500 100 L 500 100 L 500 100 L 500 100 L 500 100 L 500 100 L 500 100 L 500 100 L 500 100 L 500 100 L 500 100 L 500 100 L 500 100 L 500 100 L 500 100 L 500 100 L 500 100 L 500 100 L 500 100 L 500 100 L 500 100 Z  M 700 100 L 800 100 L 800 200 L 700 200 L 700 100 L 700 100 L 700 100 L 700 100 L 700 100 L 700 100 L 700 100 L 700 100 L 700 100 L 700 100 L 700 100 L 700 100 L 700 100 L 700 100 L 700 100 L 700 100 L 700 100 L 700 100 L 700 100 L 700 100 L 700 100 L 700 100 L 700 100 L 700 100 L 700 100 Z  M 0 200 L 100 200 L 100 300 L 0 300 L 0 200 L 0 200 L 0 200 L 0 200 L 0 200 L 0 200 L 0 200 L 0 200 L 0 200 L 0 200 L 0 200 L 0 200 L 0 200 L 0 200 L 0 200 L 0 200 L 0 200 L 0 200 L 0 200 L 0 200 L 0 200 L 0 200 L 0 200 L 0 200 Z  M 200 200 L 300 200 L 300 300 L 200 300 L 200 200 L 200 200 L 200 200 L 200 200 L 200 200 L 200 200 L 200 200 L 200 200 L 200 200 L 200 200 L 200 200 L 200 200 L 200 200 L 200 200 L 200 200 L 200 200 L 200 200 L 200 200 L 200 200 L 200 200 L 200 200 L 200 200 L 200 200 Z  M 400 200 L 500 200 L 500 300 L 400 300 L 400 200 L 400 200 L 400 200 L 400 200 L 400 200 L 400 200 L 400 200 L 400 200 L 400 200 L 400 200 L 400 200 L 400 200 L 400 200 L 400 200 L 400 200 L 400 200 L 400 200 L 400 200 L 400 200 L 400 200 L 400 200 L 400 200 Z  M 600 200 L 700 200 L 700 300 L 600 300 L 600 200 L 600 200 L 600 200 L 600 200 L 600 200 L 600 200 L 600 200 L 600 200 L 600 200 L 600 200 L 600 200 L 600 200 L 600 200 L 600 200 L 600 200 L 600 200 L 600 200 L 600 200 L 600 200 L 600 200 L 600 200 Z  M 100 300 L 200 300 L 200 400 L 100 400 L 100 300 L 100 300 L 100 300 L 100 300 L 100 300 L 100 300 L 100 300 L 100 300 L 100 300 L 100 300 L 100 300 L 100 300 L 100 300 L 100 300 L 100 300 L 100 300 L 100 300 L 100 300 L 100 300 L 100 300 Z  M 300 300 L 400 300 L 400 400 L 300 400 L 300 300 L 300 300 L 300 300 L 300 300 L 300 300 L 300 300 L 300 300 L 300 300 L 300 300 L 300 300 L 300 300 L 300 300 L 300 300 L 300 300 L 300 300 L 300 300 L 300 300 L 300 300 L 300 300 Z  M 500 300 L 600 300 L 600 400 L 500 400 L 500 300 L 500 300 L 500 300 L 500 300 L 500 300 L 500 300 L 500 300 L 500 300 L 500 300 L 500 300 L 500 300 L 500 300 L 500 300 L 500 300 L 500 300 L 500 300 L 500 300 L 500 300 Z  M 700 300 L 800 300 L 800 400 L 700 400 L 700 300 L 700 300 L 700 300 L 700 300 L 700 300 L 700 300 L 700 300 L 700 300 L 700 300 L 700 300 L 700 300 L 700 300 L 700 300 L 700 300 L 700 300 L 700 300 L 700 300 Z  M 0 400 L 100 400 L 100 500 L 0 500 L 0 400 L 0 400 L 0 400 L 0 400 L 0 400 L 0 400 L 0 400 L 0 400 L 0 400 L 0 400 L 0 400 L 0 400 L 0 400 L 0 400 L 0 400 L 0 400 Z  M 200 400 L 300 400 L 300 500 L 200 500 L 200 400 L 200 400 L 200 400 L 200 400 L 200 400 L 200 400 L 200 400 L 200 400 L 200 400 L 200 400 L 200 400 L 200 400 L 200 400 L 200 400 L 200 400 Z  M 400 400 L 500 400 L 500 500 L 400 500 L 400 400 L 400 400 L 400 400 L 400 400 L 400 400 L 400 400 L 400 400 L 400 400 L 400 400 L 400 400 L 400 400 L 400 400 L 400 400 L 400 400 Z  M 600 400 L 700 400 L 700 500 L 600 500 L 600 400 L 600 400 L 600 400 L 600 400 L 600 400 L 600 400 L 600 400 L 600 400 L 600 400 L 600 400 L 600 400 L 600 400 L 600 400 Z  M 100 500 L 200 500 L 200 600 L 100 600 L 100 500 L 100 500 L 100 500 L 100 500 L 100 500 L 100 500 L 100 500 L 100 500 L 100 500 L 100 500 L 100 500 L 100 500 Z  M 300 500 L 400 500 L 400 600 L 300 600 L 300 500 L 300 500 L 300 500 L 300 500 L 300 500 L 300 500 L 300 500 L 300 500 L 300 500 L 300 500 L 300 500 Z  M 500 500 L 600 500 L 600 600 L 500 600 L 500 500 L 500 500 L 500 500 L 500 500 L 500 500 L 500 500 L 500 500 L 500 500 L 500 500 L 500 500 Z  M 700 500 L 800 500 L 800 600 L 700 600 L 700 500 L 700 500 L 700 500 L 700 500 L 700 500 L 700 500 L 700 500 L 700 500 L 700 500 Z  M 0 600 L 100 600 L 100 700 L 0 700 L 0 600 L 0 600 L 0 600 L 0 600 L 0 600 L 0 600 L 0 600 L 0 600 Z  M 200 600 L 300 600 L 300 700 L 200 700 L 200 600 L 200 600 L 200 600 L 200 600 L 200 600 L 200 600 L 200 600 Z  M 400 600 L 500 600 L 500 700 L 400 700 L 400 600 L 400 600 L 400 600 L 400 600 L 400 600 L 400 600 Z  M 600 600 L 700 600 L 700 700 L 600 700 L 600 600 L 600 600 L 600 600 L 600 600 L 600 600 Z  M 100 700 L 200 700 L 200 800 L 100 800 L 100 700 L 100 700 L 100 700 L 100 700 Z  M 300 700 L 400 700 L 400 800 L 300 800 L 300 700 L 300 700 L 300 700 Z  M 500 700 L 600 700 L 600 800 L 500 800 L 500 700 L 500 700 Z  M 700 700 L 800 700 L 800 800 L 700 800 L 700 700 Z " fill-rule="evenodd" fill="rgb(157,112,105)"/><path d=" M 100 0 L 200 0 L 200 100 L 100 100 L 100 0 L 100 0 L 100 0 L 100 0 L 100 0 L 100 0 L 100 0 L 100 0 L 100 0 L 100 0 L 100 0 L 100 0 L 100 0 L 100 0 L 100 0 L 100 0 L 100 0 L 100 0 L 100 0 L 100 0 L 100 0 L 100 0 L 100 0 L 100 0 L 100 0 L 100 0 L 100 0 L 100 0 L 100 0 L 100 0 L 100 0 Z  M 300 0 L 400 0 L 400 100 L 300 100 L 300 0 L 300 0 L 300 0 L 300 0 L 300 0 L 300 0 L 300 0 L 300 0 L 300 0 L 300 0 L 300 0 L 300 0 L 300 0 L 300 0 L 300 0 L 300 0 L 300 0 L 300 0 L 300 0 L 300 0 L 300 0 L 300 0 L 300 0 L 300 0 L 300 0 L 300 0 L 300 0 L 300 0 L 300 0 L 300 0 L 300 0 Z  M 500 0 L 600 0 L 600 100 L 500 100 L 500 0 L 500 0 L 500 0 L 500 0 L 500 0 L 500 0 L 500 0 L 500 0 L 500 0 L 500 0 L 500 0 L 500 0 L 500 0 L 500 0 L 500 0 L 500 0 L 500 0 L 500 0 L 500 0 L 500 0 L 500 0 L 500 0 L 500 0 L 500 0 L 500 0 L 500 0 L 500 0 L 500 0 L 500 0 L 500 0 Z  M 700 0 L 800 0 L 800 100 L 700 100 L 700 0 L 700 0 L 700 0 L 700 0 L 700 0 L 700 0 L 700 0 L 700 0 L 700 0 L 700 0 L 700 0 L 700 0 L 700 0 L 700 0 L 700 0 L 700 0 L 700 0 L 700 0 L 700 0 L 700 0 L 700 0 L 700 0 L 700 0 L 700 0 L 700 0 L 700 0 L 700 0 L 700 0 L 700 0 Z  M 0 100 L 100 100 L 100 200 L 0 200 L 0 100 L 0 100 L 0 100 L 0 100 L 0 100 L 0 100 L 0 100 L 0 100 L 0 100 L 0 100 L 0 100 L 0 100 L 0 100 L 0 100 L 0 100 L 0 100 L 0 100 L 0 100 L 0 100 L 0 100 L 0 100 L 0 100 L 0 100 L 0 100 L 0 100 L 0 100 L 0 100 L 0 100 Z  M 200 100 L 300 100 L 300 200 L 200 200 L 200 100 L 200 100 L 200 100 L 200 100 L 200 100 L 200 100 L 200 100 L 200 100 L 200 100 L 200 100 L 200 100 L 200 100 L 200 100 L 200 100 L 200 100 L 200 100 L 200 100 L 200 100 L 200 100 L 200 100 L 200 100 L 200 100 L 200 100 L 200 100 L 200 100 L 200 100 L 200 100 Z  M 400 100 L 500 100 L 500 200 L 400 200 L 400 100 L 400 100 L 400 100 L 400 100 L 400 100 L 400 100 L 400 100 L 400 100 L 400 100 L 400 100 L 400 100 L 400 100 L 400 100 L 400 100 L 400 100 L 400 100 L 400 100 L 400 100 L 400 100 L 400 100 L 400 100 L 400 100 L 400 100 L 400 100 L 400 100 L 400 100 Z  M 600 100 L 700 100 L 700 200 L 600 200 L 600 100 L 600 100 L 600 100 L 600 100 L 600 100 L 600 100 L 600 100 L 600 100 L 600 100 L 600 100 L 600 100 L 600 100 L 600 100 L 600 100 L 600 100 L 600 100 L 600 100 L 600 100 L 600 100 L 600 100 L 600 100 L 600 100 L 600 100 L 600 100 L 600 100 Z  M 100 200 L 200 200 L 200 300 L 100 300 L 100 200 L 100 200 L 100 200 L 100 200 L 100 200 L 100 200 L 100 200 L 100 200 L 100 200 L 100 200 L 100 200 L 100 200 L 100 200 L 100 200 L 100 200 L 100 200 L 100 200 L 100 200 L 100 200 L 100 200 L 100 200 L 100 200 L 100 200 L 100 200 Z  M 300 200 L 400 200 L 400 300 L 300 300 L 300 200 L 300 200 L 300 200 L 300 200 L 300 200 L 300 200 L 300 200 L 300 200 L 300 200 L 300 200 L 300 200 L 300 200 L 300 200 L 300 200 L 300 200 L 300 200 L 300 200 L 300 200 L 300 200 L 300 200 L 300 200 L 300 200 L 300 200 Z  M 500 200 L 600 200 L 600 300 L 500 300 L 500 200 L 500 200 L 500 200 L 500 200 L 500 200 L 500 200 L 500 200 L 500 200 L 500 200 L 500 200 L 500 200 L 500 200 L 500 200 L 500 200 L 500 200 L 500 200 L 500 200 L 500 200 L 500 200 L 500 200 L 500 200 L 500 200 Z  M 700 200 L 800 200 L 800 300 L 700 300 L 700 200 L 700 200 L 700 200 L 700 200 L 700 200 L 700 200 L 700 200 L 700 200 L 700 200 L 700 200 L 700 200 L 700 200 L 700 200 L 700 200 L 700 200 L 700 200 L 700 200 L 700 200 L 700 200 L 700 200 L 700 200 Z  M 0 300 L 100 300 L 100 400 L 0 400 L 0 300 L 0 300 L 0 300 L 0 300 L 0 300 L 0 300 L 0 300 L 0 300 L 0 300 L 0 300 L 0 300 L 0 300 L 0 300 L 0 300 L 0 300 L 0 300 L 0 300 L 0 300 L 0 300 L 0 300 Z  M 200 300 L 300 300 L 300 400 L 200 400 L 200 300 L 200 300 L 200 300 L 200 300 L 200 300 L 200 300 L 200 300 L 200 300 L 200 300 L 200 300 L 200 300 L 200 300 L 200 300 L 200 300 L 200 300 L 200 300 L 200 300 L 200 300 L 200 300 Z  M 400 300 L 500 300 L 500 400 L 400 400 L 400 300 L 400 300 L 400 300 L 400 300 L 400 300 L 400 300 L 400 300 L 400 300 L 400 300 L 400 300 L 400 300 L 400 300 L 400 300 L 400 300 L 400 300 L 400 300 L 400 300 L 400 300 Z  M 600 300 L 700 300 L 700 400 L 600 400 L 600 300 L 600 300 L 600 300 L 600 300 L 600 300 L 600 300 L 600 300 L 600 300 L 600 300 L 600 300 L 600 300 L 600 300 L 600 300 L 600 300 L 600 300 L 600 300 L 600 300 Z  M 100 400 L 200 400 L 200 500 L 100 500 L 100 400 L 100 400 L 100 400 L 100 400 L 100 400 L 100 400 L 100 400 L 100 400 L 100 400 L 100 400 L 100 400 L 100 400 L 100 400 L 100 400 L 100 400 L 100 400 Z  M 300 400 L 400 400 L 400 500 L 300 500 L 300 400 L 300 400 L 300 400 L 300 400 L 300 400 L 300 400 L 300 400 L 300 400 L 300 400 L 300 400 L 300 400 L 300 400 L 300 400 L 300 400 L 300 400 Z  M 500 400 L 600 400 L 600 500 L 500 500 L 500 400 L 500 400 L 500 400 L 500 400 L 500 400 L 500 400 L 500 400 L 500 400 L 500 400 L 500 400 L 500 400 L 500 400 L 500 400 L 500 400 Z  M 700 400 L 800 400 L 800 500 L 700 500 L 700 400 L 700 400 L 700 400 L 700 400 L 700 400 L 700 400 L 700 400 L 700 400 L 700 400 L 700 400 L 700 400 L 700 400 L 700 400 Z  M 0 500 L 100 500 L 100 600 L 0 600 L 0 500 L 0 500 L 0 500 L 0 500 L 0 500 L 0 500 L 0 500 L 0 500 L 0 500 L 0 500 L 0 500 L 0 500 Z  M 200 500 L 300 500 L 300 600 L 200 600 L 200 500 L 200 500 L 200 500 L 200 500 L 200 500 L 200 500 L 200 500 L 200 500 L 200 500 L 200 500 L 200 500 Z  M 400 500 L 500 500 L 500 600 L 400 600 L 400 500 L 400 500 L 400 500 L 400 500 L 400 500 L 400 500 L 400 500 L 400 500 L 400 500 L 400 500 Z  M 600 500 L 700 500 L 700 600 L 600 600 L 600 500 L 600 500 L 600 500 L 600 500 L 600 500 L 600 500 L 600 500 L 600 500 L 600 500 Z  M 100 600 L 200 600 L 200 700 L 100 700 L 100 600 L 100 600 L 100 600 L 100 600 L 100 600 L 100 600 L 100 600 L 100 600 Z  M 300 600 L 400 600 L 400 700 L 300 700 L 300 600 L 300 600 L 300 600 L 300 600 L 300 600 L 300 600 L 300 600 Z  M 500 600 L 600 600 L 600 700 L 500 700 L 500 600 L 500 600 L 500 600 L 500 600 L 500 600 L 500 600 Z  M 700 600 L 800 600 L 800 700 L 700 700 L 700 600 L 700 600 L 700 600 L 700 600 L 700 600 Z  M 0 700 L 100 700 L 100 800 L 0 800 L 0 700 L 0 700 L 0 700 L 0 700 Z  M 200 700 L 300 700 L 300 800 L 200 800 L 200 700 L 200 700 L 200 700 Z  M 400 700 L 500 700 L 500 800 L 400 800 L 400 700 L 400 700 Z  M 600 700 L 700 700 L 700 800 L 600 800 L 600 700 Z " fill-rule="evenodd" fill="rgb(227,207,187)"/></g><g><g><line x1="50.068" y1="25.058" x2="50.068" y2="12.5" vector-effect="non-scaling-stroke" stroke-width="2.5" stroke="rgb(0,0,0)" stroke-linejoin="miter" stroke-linecap="round" stroke-miterlimit="4"/><line x1="44.492" y1="16.961" x2="55.644" y2="16.961" vector-effect="non-scaling-stroke" stroke-width="2.5" stroke="rgb(0,0,0)" stroke-linejoin="miter" stroke-linecap="round" stroke-miterlimit="4"/><path d=" M 50.068 54.879 C 50.068 54.879 60.105 38.151 56.759 31.459 C 56.759 31.459 54.529 25.883 50.068 25.883 C 45.607 25.883 43.376 31.459 43.376 31.459 C 40.031 38.151 50.068 54.879 50.068 54.879 Z " fill-rule="evenodd" fill="rgb(255,255,255)" vector-effect="non-scaling-stroke" stroke-width="2.5" stroke="rgb(0,0,0)" stroke-linejoin="miter" stroke-linecap="butt" stroke-miterlimit="4"/><path d=" M 25.533 81.645 C 37.8 89.452 60.105 89.452 72.373 81.645 L 72.373 66.032 C 72.373 66.032 92.447 55.994 85.756 42.612 C 76.834 28.113 55.644 34.805 50.068 51.533 L 50.068 59.34 L 50.068 51.533 C 42.261 34.805 21.072 28.113 14.38 42.612 C 7.689 55.994 25.533 64.916 25.533 64.916 L 25.533 81.645 Z " fill-rule="evenodd" fill="rgb(255,255,255)" vector-effect="non-scaling-stroke" stroke-width="2.5" stroke="rgb(0,0,0)" stroke-linejoin="round" stroke-linecap="round" stroke-miterlimit="4"/><path d=" M 25.533 66.032 C 37.8 59.34 60.105 59.34 72.373 66.032" fill-rule="evenodd" fill="none" vector-effect="non-scaling-stroke" stroke-width="2.5" stroke="rgb(0,0,0)" stroke-linejoin="round" stroke-linecap="round" stroke-miterlimit="4"/><path d=" M 25.533 73.838 C 37.8 67.147 60.105 67.147 72.373 73.838" fill-rule="evenodd" fill="none" vector-effect="non-scaling-stroke" stroke-width="2.5" stroke="rgb(0,0,0)" stroke-linejoin="round" stroke-linecap="round" stroke-miterlimit="4"/><path d=" M 25.533 81.645 C 37.8 74.954 60.105 74.954 72.373 81.645" fill-rule="evenodd" fill="none" vector-effect="non-scaling-stroke" stroke-width="2.5" stroke="rgb(0,0,0)" stroke-linejoin="round" stroke-linecap="round" stroke-miterlimit="4"/></g><g><path d=" M 117.778 26.944 C 117.778 29.399 115.788 31.389 113.333 31.389 C 110.879 31.389 108.889 29.399 108.889 26.944 C 108.889 24.49 110.879 22.5 113.333 22.5 C 115.788 22.5 117.778 24.49 117.778 26.944 Z " fill-rule="evenodd" fill="rgb(255,255,255)" vector-effect="non-scaling-stroke" stroke-width="2.5" stroke="rgb(0,0,0)" stroke-linejoin="round" stroke-linecap="round" stroke-miterlimit="4"/><path d=" M 154.444 16.944 C 154.444 19.399 152.455 21.389 150 21.389 C 147.545 21.389 145.556 19.399 145.556 16.944 C 145.556 14.49 147.545 12.5 150 12.5 C 152.455 12.5 154.444 14.49 154.444 16.944 Z " fill-rule="evenodd" fill="rgb(255,255,255)" vector-effect="non-scaling-stroke" stroke-width="2.5" stroke="rgb(0,0,0)" stroke-linejoin="round" stroke-linecap="round" stroke-miterlimit="4"/><path d=" M 191.111 26.944 C 191.111 29.399 189.121 31.389 186.667 31.389 C 184.212 31.389 182.222 29.399 182.222 26.944 C 182.222 24.49 184.212 22.5 186.667 22.5 C 189.121 22.5 191.111 24.49 191.111 26.944 Z " fill-rule="evenodd" fill="rgb(255,255,255)" vector-effect="non-scaling-stroke" stroke-width="2.5" stroke="rgb(0,0,0)" stroke-linejoin="round" stroke-linecap="round" stroke-miterlimit="4"/><path d=" M 135.556 19.167 C 135.556 21.621 133.566 23.611 131.111 23.611 C 128.657 23.611 126.667 21.621 126.667 19.167 C 126.667 16.712 128.657 14.722 131.111 14.722 C 133.566 14.722 135.556 16.712 135.556 19.167 Z " fill-rule="evenodd" fill="rgb(255,255,255)" vector-effect="non-scaling-stroke" stroke-width="2.5" stroke="rgb(0,0,0)" stroke-linejoin="round" stroke-linecap="round" stroke-miterlimit="4"/><path d=" M 173.333 20.278 C 173.333 22.732 171.343 24.722 168.889 24.722 C 166.434 24.722 164.444 22.732 164.444 20.278 C 164.444 17.823 166.434 15.833 168.889 15.833 C 171.343 15.833 173.333 17.823 173.333 20.278 Z " fill-rule="evenodd" fill="rgb(255,255,255)" vector-effect="non-scaling-stroke" stroke-width="2.5" stroke="rgb(0,0,0)" stroke-linejoin="round" stroke-linecap="round" stroke-miterlimit="4"/><path d=" M 120 58.056 C 138.889 54.722 166.667 54.722 180 58.056 L 184.444 31.389 L 168.889 55.833 L 168.889 24.722 L 156.667 54.722 L 150 21.389 L 143.333 54.722 L 131.111 23.611 L 131.111 55.833 L 115.556 31.389 L 120 58.056 Z " fill-rule="evenodd" fill="rgb(255,255,255)" vector-effect="non-scaling-stroke" stroke-width="2.5" stroke="rgb(0,0,0)" stroke-linejoin="round" stroke-linecap="butt" stroke-miterlimit="4"/><path d=" M 120 58.056 C 120 62.5 123.333 62.5 125.556 66.944 C 127.778 70.278 127.778 69.167 126.667 74.722 C 123.333 76.944 123.333 80.278 123.333 80.278 C 120 83.611 124.444 85.833 124.444 85.833 C 138.889 88.056 161.111 88.056 175.556 85.833 C 175.556 85.833 178.889 83.611 175.556 80.278 C 175.556 80.278 176.667 76.944 173.333 74.722 C 172.222 69.167 172.222 70.278 174.444 66.944 C 176.667 62.5 180 62.5 180 58.056 C 161.111 54.722 138.889 54.722 120 58.056 Z " fill-rule="evenodd" fill="rgb(255,255,255)" vector-effect="non-scaling-stroke" stroke-width="2.5" stroke="rgb(0,0,0)" stroke-linejoin="round" stroke-linecap="butt" stroke-miterlimit="4"/><path d=" M 125.556 66.944 C 133.333 64.722 166.667 64.722 174.444 66.944" fill-rule="evenodd" fill="none" vector-effect="non-scaling-stroke" stroke-width="2.5" stroke="rgb(0,0,0)" stroke-linejoin="round" stroke-linecap="round" stroke-miterlimit="4"/><path d=" M 126.667 74.722 C 140 72.5 160 72.5 173.333 74.722" fill-rule="evenodd" fill="none" vector-effect="non-scaling-stroke" stroke-width="2.5" stroke="rgb(0,0,0)" stroke-linejoin="round" stroke-linecap="round" stroke-miterlimit="4"/></g><g><g><path d=" M 219.608 81.162 C 227.24 78.979 242.368 82.13 250 76.66 C 257.632 82.13 272.76 78.979 280.392 81.162 C 280.392 81.162 284.106 82.378 287.145 85.665 C 285.614 87.849 283.431 87.894 280.392 86.79 C 272.76 84.607 257.632 87.826 250 84.539 C 242.368 87.826 227.24 84.607 219.608 86.79 C 216.56 87.894 214.379 87.849 212.855 85.665 C 215.903 81.297 219.608 81.162 219.608 81.162 Z " fill-rule="evenodd" fill="rgb(255,255,255)" vector-effect="non-scaling-stroke" stroke-width="2.5" stroke="rgb(0,0,0)" stroke-linejoin="round" stroke-linecap="butt" stroke-miterlimit="4"/><path d=" M 233.116 72.157 C 238.744 77.786 261.256 77.786 266.884 72.157 C 268.01 68.781 266.884 67.655 266.884 67.655 C 266.884 62.027 261.256 58.65 261.256 58.65 C 273.638 55.273 274.763 32.761 250 23.756 C 225.237 32.761 226.362 55.273 238.744 58.65 C 238.744 58.65 233.116 62.027 233.116 67.655 C 233.116 67.655 231.99 68.781 233.116 72.157 Z " fill-rule="evenodd" fill="rgb(255,255,255)" vector-effect="non-scaling-stroke" stroke-width="2.5" stroke="rgb(0,0,0)" stroke-linejoin="round" stroke-linecap="butt" stroke-miterlimit="4"/><path d=" M 255.628 18.128 C 255.628 21.236 253.108 23.756 250 23.756 C 246.892 23.756 244.372 21.236 244.372 18.128 C 244.372 15.02 246.892 12.5 250 12.5 C 253.108 12.5 255.628 15.02 255.628 18.128 Z " fill-rule="evenodd" fill="rgb(255,255,255)" vector-effect="non-scaling-stroke" stroke-width="2.5" stroke="rgb(0,0,0)" stroke-linejoin="round" stroke-linecap="butt" stroke-miterlimit="4"/></g><path d=" M 238.744 58.65 L 261.256 58.65 M 233.116 67.655 L 266.884 67.655 M 250 35.012 L 250 46.268 M 244.372 40.64 L 255.628 40.64" fill-rule="evenodd" fill="none" vector-effect="non-scaling-stroke" stroke-width="2.5" stroke="rgb(0,0,0)" stroke-linejoin="miter" stroke-linecap="round" stroke-miterlimit="4"/></g><g><path d=" M 349.966 19.531 C 374.575 21.875 388.638 38.281 387.466 87.5 L 333.56 87.5 C 333.56 66.406 356.997 72.266 352.31 38.281" fill-rule="evenodd" fill="rgb(255,255,255)" vector-effect="non-scaling-stroke" stroke-width="2.5" stroke="rgb(0,0,0)" stroke-linejoin="round" stroke-linecap="round" stroke-miterlimit="4"/><path d=" M 354.654 38.281 C 355.544 45.102 341.646 55.555 335.904 59.375 C 328.872 64.063 329.294 69.547 324.185 68.75 C 321.743 66.547 327.49 61.625 324.185 61.719 C 321.841 61.719 324.63 64.602 321.841 66.406 C 319.497 66.406 312.459 68.75 312.466 57.031 C 312.466 52.344 326.529 28.906 326.529 28.906 C 326.529 28.906 330.958 24.453 331.216 20.703 C 329.505 18.373 330.044 16.016 330.044 13.672 C 332.388 11.328 337.075 19.531 337.075 19.531 L 341.763 19.531 C 341.763 19.531 343.591 14.863 347.622 12.5 C 349.966 12.5 349.966 19.531 349.966 19.531" fill-rule="evenodd" fill="rgb(255,255,255)" vector-effect="non-scaling-stroke" stroke-width="2.5" stroke="rgb(0,0,0)" stroke-linejoin="round" stroke-linecap="round" stroke-miterlimit="4"/><path d=" M 320.669 55.859 C 320.669 56.507 320.145 57.031 319.497 57.031 C 318.85 57.031 318.325 56.507 318.325 55.859 C 318.325 55.212 318.85 54.688 319.497 54.688 C 320.145 54.688 320.669 55.212 320.669 55.859 Z " fill-rule="evenodd" fill="rgb(0,0,0)" vector-effect="non-scaling-stroke" stroke-width="2.5" stroke="rgb(0,0,0)" stroke-linejoin="round" stroke-linecap="round" stroke-miterlimit="4"/><path d=" M 333.403 33.008 C 332.432 34.689 331.191 35.79 330.63 35.466 C 330.07 35.143 330.402 33.517 331.373 31.836 C 332.344 30.154 333.585 29.054 334.146 29.377 C 334.706 29.701 334.374 31.326 333.403 33.008 Z " fill-rule="evenodd" fill="rgb(0,0,0)" vector-effect="non-scaling-stroke" stroke-width="2.5" stroke="rgb(0,0,0)" stroke-linejoin="round" stroke-linecap="round" stroke-miterlimit="4"/></g><g><path d=" M 416.25 87.5 L 483.75 87.5 L 483.75 80 L 416.25 80 L 416.25 87.5 Z " fill-rule="evenodd" fill="rgb(255,255,255)" vector-effect="non-scaling-stroke" stroke-width="2.5" stroke="rgb(0,0,0)" stroke-linejoin="round" stroke-linecap="butt" stroke-miterlimit="4"/><path d=" M 423.75 80 L 423.75 70 L 476.25 70 L 476.25 80 L 423.75 80 Z " fill-rule="evenodd" fill="rgb(255,255,255)" vector-effect="non-scaling-stroke" stroke-width="2.5" stroke="rgb(0,0,0)" stroke-linejoin="round" stroke-linecap="butt" stroke-miterlimit="4"/><path d=" M 421.25 25 L 421.25 12.5 L 431.25 12.5 L 431.25 17.5 L 443.75 17.5 L 443.75 12.5 L 456.25 12.5 L 456.25 17.5 L 468.75 17.5 L 468.75 12.5 L 478.75 12.5 L 478.75 25" fill-rule="evenodd" fill="rgb(255,255,255)" vector-effect="non-scaling-stroke" stroke-width="2.5" stroke="rgb(0,0,0)" stroke-linejoin="round" stroke-linecap="butt" stroke-miterlimit="4"/><path d=" M 478.75 25 L 471.25 32.5 L 428.75 32.5 L 421.25 25" fill-rule="evenodd" fill="rgb(255,255,255)" vector-effect="non-scaling-stroke" stroke-width="2.5" stroke="rgb(0,0,0)" stroke-linejoin="round" stroke-linecap="round" stroke-miterlimit="4"/><path d=" M 471.25 32.5 L 471.25 63.75 L 428.75 63.75 L 428.75 32.5" fill-rule="evenodd" fill="rgb(255,255,255)" vector-effect="non-scaling-stroke" stroke-width="2.5" stroke="rgb(0,0,0)" stroke-linejoin="miter" stroke-linecap="butt" stroke-miterlimit="4"/><path d=" M 471.25 63.75 L 475 70 L 425 70 L 428.75 63.75" fill-rule="evenodd" fill="rgb(255,255,255)" vector-effect="non-scaling-stroke" stroke-width="2.5" stroke="rgb(0,0,0)" stroke-linejoin="round" stroke-linecap="round" stroke-miterlimit="4"/><line x1="421.25" y1="25" x2="478.75" y2="25" vector-effect="non-scaling-stroke" stroke-width="2.5" stroke="rgb(0,0,0)" stroke-linejoin="miter" stroke-linecap="round" stroke-miterlimit="4"/></g><g><path d=" M 550 12.5 C 544.566 12.5 540.164 16.902 540.164 22.336 C 540.164 24.525 540.877 26.541 542.082 28.189 C 537.287 30.943 534.016 36.082 534.016 42.008 C 534.016 47 536.328 51.451 539.943 54.377 C 532.566 56.984 521.721 68.025 521.721 87.5 L 578.279 87.5 C 578.279 68.025 567.434 56.984 560.057 54.377 C 563.672 51.451 565.984 47 565.984 42.008 C 565.984 36.082 562.713 30.943 557.918 28.189 C 559.123 26.541 559.836 24.525 559.836 22.336 C 559.836 16.902 555.434 12.5 550 12.5 Z " fill="rgb(255,255,255)" vector-effect="non-scaling-stroke" stroke-width="2.5" stroke="rgb(0,0,0)" stroke-linejoin="miter" stroke-linecap="round" stroke-miterlimit="4"/></g><g><line x1="50.068" y1="125.058" x2="50.068" y2="112.5" vector-effect="non-scaling-stroke" stroke-width="2.5" stroke="rgb(255,255,255)" stroke-linejoin="miter" stroke-linecap="round" stroke-miterlimit="4"/><line x1="44.492" y1="116.961" x2="55.644" y2="116.961" vector-effect="non-scaling-stroke" stroke-width="2.5" stroke="rgb(255,255,255)" stroke-linejoin="miter" stroke-linecap="round" stroke-miterlimit="4"/><path d=" M 50.068 154.879 C 50.068 154.879 60.105 138.151 56.759 131.459 C 56.759 131.459 54.529 125.883 50.068 125.883 C 45.607 125.883 43.376 131.459 43.376 131.459 C 40.031 138.151 50.068 154.879 50.068 154.879 Z " fill-rule="evenodd" fill="rgb(0,0,0)" vector-effect="non-scaling-stroke" stroke-width="2.5" stroke="rgb(255,255,255)" stroke-linejoin="miter" stroke-linecap="butt" stroke-miterlimit="4"/><path d=" M 25.533 181.645 C 37.8 189.452 60.105 189.452 72.373 181.645 L 72.373 166.032 C 72.373 166.032 92.447 155.994 85.756 142.612 C 76.834 128.113 55.644 134.805 50.068 151.533 L 50.068 159.34 L 50.068 151.533 C 42.261 134.805 21.072 128.113 14.38 142.612 C 7.689 155.994 25.533 164.916 25.533 164.916 L 25.533 181.645 Z " fill-rule="evenodd" fill="rgb(0,0,0)" vector-effect="non-scaling-stroke" stroke-width="2.5" stroke="rgb(255,255,255)" stroke-linejoin="round" stroke-linecap="round" stroke-miterlimit="4"/><path d=" M 25.533 166.032 C 37.8 159.34 60.105 159.34 72.373 166.032" fill-rule="evenodd" fill="rgb(0,0,0)" vector-effect="non-scaling-stroke" stroke-width="2.5" stroke="rgb(255,255,255)" stroke-linejoin="round" stroke-linecap="round" stroke-miterlimit="4"/><path d=" M 25.533 173.838 C 37.8 167.147 60.105 167.147 72.373 173.838" fill-rule="evenodd" fill="rgb(0,0,0)" vector-effect="non-scaling-stroke" stroke-width="2.5" stroke="rgb(255,255,255)" stroke-linejoin="round" stroke-linecap="round" stroke-miterlimit="4"/><path d=" M 25.533 181.645 C 37.8 174.954 60.105 174.954 72.373 181.645" fill-rule="evenodd" fill="rgb(0,0,0)" vector-effect="non-scaling-stroke" stroke-width="2.5" stroke="rgb(255,255,255)" stroke-linejoin="round" stroke-linecap="round" stroke-miterlimit="4"/></g><g><path d=" M 117.778 126.944 C 117.778 129.399 115.788 131.389 113.333 131.389 C 110.879 131.389 108.889 129.399 108.889 126.944 C 108.889 124.49 110.879 122.5 113.333 122.5 C 115.788 122.5 117.778 124.49 117.778 126.944 Z " fill-rule="evenodd" fill="rgb(0,0,0)" vector-effect="non-scaling-stroke" stroke-width="2.5" stroke="rgb(255,255,255)" stroke-linejoin="round" stroke-linecap="round" stroke-miterlimit="4"/><path d=" M 154.444 116.944 C 154.444 119.399 152.455 121.389 150 121.389 C 147.545 121.389 145.556 119.399 145.556 116.944 C 145.556 114.49 147.545 112.5 150 112.5 C 152.455 112.5 154.444 114.49 154.444 116.944 Z " fill-rule="evenodd" fill="rgb(0,0,0)" vector-effect="non-scaling-stroke" stroke-width="2.5" stroke="rgb(255,255,255)" stroke-linejoin="round" stroke-linecap="round" stroke-miterlimit="4"/><path d=" M 191.111 126.944 C 191.111 129.399 189.121 131.389 186.667 131.389 C 184.212 131.389 182.222 129.399 182.222 126.944 C 182.222 124.49 184.212 122.5 186.667 122.5 C 189.121 122.5 191.111 124.49 191.111 126.944 Z " fill-rule="evenodd" fill="rgb(0,0,0)" vector-effect="non-scaling-stroke" stroke-width="2.5" stroke="rgb(255,255,255)" stroke-linejoin="round" stroke-linecap="round" stroke-miterlimit="4"/><path d=" M 135.556 119.167 C 135.556 121.621 133.566 123.611 131.111 123.611 C 128.657 123.611 126.667 121.621 126.667 119.167 C 126.667 116.712 128.657 114.722 131.111 114.722 C 133.566 114.722 135.556 116.712 135.556 119.167 Z " fill-rule="evenodd" fill="rgb(0,0,0)" vector-effect="non-scaling-stroke" stroke-width="2.5" stroke="rgb(255,255,255)" stroke-linejoin="round" stroke-linecap="round" stroke-miterlimit="4"/><path d=" M 173.333 120.278 C 173.333 122.732 171.343 124.722 168.889 124.722 C 166.434 124.722 164.444 122.732 164.444 120.278 C 164.444 117.823 166.434 115.833 168.889 115.833 C 171.343 115.833 173.333 117.823 173.333 120.278 Z " fill-rule="evenodd" fill="rgb(0,0,0)" vector-effect="non-scaling-stroke" stroke-width="2.5" stroke="rgb(255,255,255)" stroke-linejoin="round" stroke-linecap="round" stroke-miterlimit="4"/><path d=" M 120 158.056 C 138.889 154.722 166.667 154.722 180 158.056 L 184.444 131.389 L 168.889 155.833 L 168.889 124.722 L 156.667 154.722 L 150 121.389 L 143.333 154.722 L 131.111 123.611 L 131.111 155.833 L 115.556 131.389 L 120 158.056 Z " fill-rule="evenodd" fill="rgb(0,0,0)" vector-effect="non-scaling-stroke" stroke-width="2.5" stroke="rgb(255,255,255)" stroke-linejoin="round" stroke-linecap="butt" stroke-miterlimit="4"/><path d=" M 120 158.056 C 120 162.5 123.333 162.5 125.556 166.944 C 127.778 170.278 127.778 169.167 126.667 174.722 C 123.333 176.944 123.333 180.278 123.333 180.278 C 120 183.611 124.444 185.833 124.444 185.833 C 138.889 188.056 161.111 188.056 175.556 185.833 C 175.556 185.833 178.889 183.611 175.556 180.278 C 175.556 180.278 176.667 176.944 173.333 174.722 C 172.222 169.167 172.222 170.278 174.444 166.944 C 176.667 162.5 180 162.5 180 158.056 C 161.111 154.722 138.889 154.722 120 158.056 Z " fill-rule="evenodd" fill="rgb(0,0,0)" vector-effect="non-scaling-stroke" stroke-width="2.5" stroke="rgb(255,255,255)" stroke-linejoin="round" stroke-linecap="butt" stroke-miterlimit="4"/><path d=" M 125.556 166.944 C 133.333 164.722 166.667 164.722 174.444 166.944" fill-rule="evenodd" fill="rgb(0,0,0)" vector-effect="non-scaling-stroke" stroke-width="2.5" stroke="rgb(255,255,255)" stroke-linejoin="round" stroke-linecap="round" stroke-miterlimit="4"/><path d=" M 126.667 174.722 C 140 172.5 160 172.5 173.333 174.722" fill-rule="evenodd" fill="rgb(0,0,0)" vector-effect="non-scaling-stroke" stroke-width="2.5" stroke="rgb(255,255,255)" stroke-linejoin="round" stroke-linecap="round" stroke-miterlimit="4"/></g><g><g><path d=" M 219.608 181.162 C 227.24 178.979 242.368 182.13 250 176.66 C 257.632 182.13 272.76 178.979 280.392 181.162 C 280.392 181.162 284.106 182.378 287.145 185.665 C 285.614 187.849 283.431 187.894 280.392 186.79 C 272.76 184.607 257.632 187.826 250 184.539 C 242.368 187.826 227.24 184.607 219.608 186.79 C 216.56 187.894 214.379 187.849 212.855 185.665 C 215.903 181.297 219.608 181.162 219.608 181.162 Z " fill-rule="evenodd" fill="rgb(0,0,0)" vector-effect="non-scaling-stroke" stroke-width="2.5" stroke="rgb(255,255,255)" stroke-linejoin="round" stroke-linecap="butt" stroke-miterlimit="4"/><path d=" M 233.116 172.157 C 238.744 177.786 261.256 177.786 266.884 172.157 C 268.01 168.781 266.884 167.655 266.884 167.655 C 266.884 162.027 261.256 158.65 261.256 158.65 C 273.638 155.273 274.763 132.761 250 123.756 C 225.237 132.761 226.362 155.273 238.744 158.65 C 238.744 158.65 233.116 162.027 233.116 167.655 C 233.116 167.655 231.99 168.781 233.116 172.157 Z " fill-rule="evenodd" fill="rgb(0,0,0)" vector-effect="non-scaling-stroke" stroke-width="2.5" stroke="rgb(255,255,255)" stroke-linejoin="round" stroke-linecap="butt" stroke-miterlimit="4"/><path d=" M 255.628 118.128 C 255.628 121.236 253.108 123.756 250 123.756 C 246.892 123.756 244.372 121.236 244.372 118.128 C 244.372 115.02 246.892 112.5 250 112.5 C 253.108 112.5 255.628 115.02 255.628 118.128 Z " fill-rule="evenodd" fill="rgb(0,0,0)" vector-effect="non-scaling-stroke" stroke-width="2.5" stroke="rgb(255,255,255)" stroke-linejoin="round" stroke-linecap="butt" stroke-miterlimit="4"/></g><path d=" M 238.744 158.65 L 261.256 158.65 M 233.116 167.655 L 266.884 167.655 M 250 135.012 L 250 146.268 M 244.372 140.64 L 255.628 140.64" fill-rule="evenodd" fill="rgb(0,0,0)" vector-effect="non-scaling-stroke" stroke-width="2.5" stroke="rgb(255,255,255)" stroke-linejoin="miter" stroke-linecap="round" stroke-miterlimit="4"/></g><g><path d=" M 349.966 119.531 C 374.575 121.875 388.638 138.281 387.466 187.5 L 333.56 187.5 C 333.56 166.406 356.997 172.266 352.31 138.281" fill-rule="evenodd" fill="rgb(0,0,0)" vector-effect="non-scaling-stroke" stroke-width="2.5" stroke="rgb(255,255,255)" stroke-linejoin="round" stroke-linecap="round" stroke-miterlimit="4"/><path d=" M 354.654 138.281 C 355.544 145.102 341.646 155.555 335.904 159.375 C 328.872 164.063 329.294 169.547 324.185 168.75 C 321.743 166.547 327.49 161.625 324.185 161.719 C 321.841 161.719 324.63 164.602 321.841 166.406 C 319.497 166.406 312.459 168.75 312.466 157.031 C 312.466 152.344 326.529 128.906 326.529 128.906 C 326.529 128.906 330.958 124.453 331.216 120.703 C 329.505 118.373 330.044 116.016 330.044 113.672 C 332.388 111.328 337.075 119.531 337.075 119.531 L 341.763 119.531 C 341.763 119.531 343.591 114.863 347.622 112.5 C 349.966 112.5 349.966 119.531 349.966 119.531" fill-rule="evenodd" fill="rgb(0,0,0)" vector-effect="non-scaling-stroke" stroke-width="2.5" stroke="rgb(255,255,255)" stroke-linejoin="round" stroke-linecap="round" stroke-miterlimit="4"/><path d=" M 320.669 155.859 C 320.669 156.507 320.145 157.031 319.497 157.031 C 318.85 157.031 318.325 156.507 318.325 155.859 C 318.325 155.212 318.85 154.688 319.497 154.688 C 320.145 154.688 320.669 155.212 320.669 155.859 Z " fill-rule="evenodd" fill="rgb(0,0,0)" vector-effect="non-scaling-stroke" stroke-width="2.5" stroke="rgb(255,255,255)" stroke-linejoin="round" stroke-linecap="round" stroke-miterlimit="4"/><path d=" M 333.403 133.008 C 332.432 134.689 331.191 135.79 330.63 135.466 C 330.07 135.143 330.402 133.517 331.373 131.836 C 332.344 130.154 333.585 129.054 334.146 129.377 C 334.706 129.701 334.374 131.326 333.403 133.008 Z " fill-rule="evenodd" fill="rgb(0,0,0)" vector-effect="non-scaling-stroke" stroke-width="2.5" stroke="rgb(255,255,255)" stroke-linejoin="round" stroke-linecap="round" stroke-miterlimit="4"/></g><g><path d=" M 416.25 187.5 L 483.75 187.5 L 483.75 180 L 416.25 180 L 416.25 187.5 Z " fill-rule="evenodd" fill="rgb(0,0,0)" vector-effect="non-scaling-stroke" stroke-width="2.5" stroke="rgb(255,255,255)" stroke-linejoin="round" stroke-linecap="butt" stroke-miterlimit="4"/><path d=" M 423.75 180 L 423.75 170 L 476.25 170 L 476.25 180 L 423.75 180 Z " fill-rule="evenodd" fill="rgb(0,0,0)" vector-effect="non-scaling-stroke" stroke-width="2.5" stroke="rgb(255,255,255)" stroke-linejoin="round" stroke-linecap="butt" stroke-miterlimit="4"/><path d=" M 421.25 125 L 421.25 112.5 L 431.25 112.5 L 431.25 117.5 L 443.75 117.5 L 443.75 112.5 L 456.25 112.5 L 456.25 117.5 L 468.75 117.5 L 468.75 112.5 L 478.75 112.5 L 478.75 125" fill-rule="evenodd" fill="rgb(0,0,0)" vector-effect="non-scaling-stroke" stroke-width="2.5" stroke="rgb(255,255,255)" stroke-linejoin="round" stroke-linecap="butt" stroke-miterlimit="4"/><path d=" M 478.75 125 L 471.25 132.5 L 428.75 132.5 L 421.25 125" fill-rule="evenodd" fill="rgb(0,0,0)" vector-effect="non-scaling-stroke" stroke-width="2.5" stroke="rgb(255,255,255)" stroke-linejoin="round" stroke-linecap="round" stroke-miterlimit="4"/><path d=" M 471.25 132.5 L 471.25 163.75 L 428.75 163.75 L 428.75 132.5" fill-rule="evenodd" fill="rgb(0,0,0)" vector-effect="non-scaling-stroke" stroke-width="2.5" stroke="rgb(255,255,255)" stroke-linejoin="miter" stroke-linecap="butt" stroke-miterlimit="4"/><path d=" M 471.25 163.75 L 475 170 L 425 170 L 428.75 163.75" fill-rule="evenodd" fill="rgb(0,0,0)" vector-effect="non-scaling-stroke" stroke-width="2.5" stroke="rgb(255,255,255)" stroke-linejoin="round" stroke-linecap="round" stroke-miterlimit="4"/><line x1="421.25" y1="125" x2="478.75" y2="125" vector-effect="non-scaling-stroke" stroke-width="2.5" stroke="rgb(255,255,255)" stroke-linejoin="miter" stroke-linecap="round" stroke-miterlimit="4"/></g><g><path d=" M 550 112.5 C 544.566 112.5 540.164 116.902 540.164 122.336 C 540.164 124.525 540.877 126.541 542.082 128.189 C 537.287 130.943 534.016 136.082 534.016 142.008 C 534.016 147 536.328 151.451 539.943 154.377 C 532.566 156.984 521.721 168.025 521.721 187.5 L 578.279 187.5 C 578.279 168.025 567.434 156.984 560.057 154.377 C 563.672 151.451 565.984 147 565.984 142.008 C 565.984 136.082 562.713 130.943 557.918 128.189 C 559.123 126.541 559.836 124.525 559.836 122.336 C 559.836 116.902 555.434 112.5 550 112.5 Z " fill="rgb(0,0,0)" vector-effect="non-scaling-stroke" stroke-width="2.5" stroke="rgb(255,255,255)" stroke-linejoin="miter" stroke-linecap="round" stroke-miterlimit="4"/></g></g></g></svg>